<svg xmlns="http://www.w3.org/2000/svg" xmlns:xlink="http://www.w3.org/1999/xlink" viewBox="0 0 36 36">
<title>💤: ZZZ (U+1F4A4) - emojiall.com</title>
<style>svg{stroke:#edf2f6;animation:dashoffset 10s both infinite,fill-opacity 10s both infinite,stroke-opacity 10s both infinite;stroke-dasharray:500%;stroke-dashoffset:500%}@keyframes stroke-opacity{2%,25%{stroke-opacity:.75;stroke-width:2%}100%,75%{stroke-opacity:0;stroke-width:0}}@keyframes fill-opacity{10%,25%{fill-opacity:0}0%,100%,50%{fill-opacity:1}}@keyframes dashoffset{0%,2%{stroke-dashoffset:500%}100%{stroke-dashoffset:0%}}</style>
<path fill="#4289C1" d="M33 19c1.187 0 2 .786 2 2 0 1.073-.983 2-2 2H22c-1.496 0-2-.813-2-2 0-.565.632-1.492 1-2l8-12h-7c-1.128 0-2-.843-2-2 0-1.073.929-2 2-2h11c1.639 0 2 1.012 2 2 0 .621-.635 1.519-1 2l-8 12h7zm-16 5c.633 0 1 .353 1 1 0 .573-.458 1-1 1h-6c-.798 0-1-.367-1-1 0-.301.337-.729.533-1L15 18h-4c-.602 0-1-.384-1-1 0-.573.428-1 1-1h6c.874 0 1 .473 1 1 0 .331-.338.877-.533 1.133L13 24h4zm-9 7c.633 0 1 .353 1 1 0 .573-.458 1-1 1H2c-.798 0-1-.367-1-1 0-.301.337-.729.533-1L6 25H2c-.602 0-1-.384-1-1 0-.572.428-1 1-1h6c.874 0 1 .473 1 1 0 .331-.338.877-.533 1.133L4 31h4z"/>
<a xlink:href="https://www.emojiall.com/en/emoji/%F0%9F%92%A4"><text x="36" y="34" font-size="1px" fill="#888da8" text-anchor="end" font-family="apple color emoji,segoe ui emoji,noto color emoji,android emoji,emojisymbols,emojione mozilla,twemoji mozilla,segoe ui symbol,Noto Color Emoji Compat,emoji,sans-serif">💤</text></a>
<a xlink:href="https://www.emojiall.com/"><text x="36" y="35" font-size="0.8px" fill="#888da8" text-anchor="end"><title>www.emojiall.com</title>emojiall.com</text></a>
</svg>